<svg class="partials-img" xmlns="http://www.w3.org/2000/svg" width="{{ .width }}" height="{{ .height }}" viewBox="0 0 16 16" aria-label="External Link"><path d="M16 8c0 6.213-1.787 8-8 8s-8-1.787-8-8 1.787-8 8-8 8 1.787 8 8zM8.404 5.055a546.794 546.794 0 00-6.562 2.827c-.532.21-.811.419-.837.621-.042.342.387.477.97.661l.247.078c.573.187 1.347.405 1.748.413.365.009.772-.14 1.22-.45C8.255 7.137 9.837 6.092 9.935 6.07c.07-.017.169-.036.233.023.067.057.06.168.052.198-.042.181-1.725 1.745-2.595 2.555-.272.253-.465.432-.504.473-.087.088-.175.175-.264.261-.535.515-.934.9.02 1.53.46.304.83.553 1.196.803.4.273.799.544 1.316.885.131.084.258.175.38.263.466.332.886.63 1.402.582.301-.028.612-.31.77-1.153.372-1.993 1.105-6.309 1.273-8.088a2 2 0 00-.018-.443.474.474 0 00-.16-.305.74.74 0 00-.436-.13c-.422.007-1.073.233-4.196 1.532z"/></svg>