<svg class="partials-img" xmlns="http://www.w3.org/2000/svg" width="16" height="16" viewBox="0 0 14.222 14.222" aria-label="Sidebar Link">
<path fill="#215271" d="M11.211 1.744v3.924l-5.988 5.988L1.3 7.733l5.988-5.989zm.856 0A.855.855 0 0011.21.89H7.288a.855.855 0 00-.605.25L.695 7.129a.855.855 0 000 1.21l3.923 3.923a.855.855 0 001.21 0l5.988-5.989a.855.855 0 00.25-.604z"/><path fill="{{ .Site.Params.mainColour }}" d="M9.073 4.31a.428.428 0 100-.855.428.428 0 000 .856zm0 .856a1.283 1.283 0 110-2.566 1.283 1.283 0 010 2.566zm3.85.93a.855.855 0 01-.251.604l-6.38 6.38.037.036a.855.855 0 001.21 0l5.988-5.988a.855.855 0 00.25-.605V2.6a.855.855 0 00-.855-.856z"/></svg>