<svg class="partials-img" xmlns="http://www.w3.org/2000/svg" width="{{ .width }}" height="{{ .height }}" viewBox="0 0 16 16" aria-label="External Link"><path d="M1.438 8a6.563 6.563 0 1013.124 0A6.563 6.563 0 001.438 8zM15.5 8a7.5 7.5 0 11-15 0 7.5 7.5 0 0115 0zM8.137 5.18C7 5.18 6.33 6.043 6.33 7.526v.993c0 1.473.66 2.308 1.807 2.308.918 0 1.538-.549 1.62-1.329h1.215v.087c-.094 1.358-1.27 2.313-2.84 2.313-1.961 0-3.065-1.252-3.065-3.378V7.514c0-2.12 1.126-3.41 3.065-3.41 1.576 0 2.752.988 2.84 2.411v.083H9.758c-.083-.825-.72-1.418-1.621-1.418z"/></svg>