<svg class="partials-img" xmlns="http://www.w3.org/2000/svg" width="{{ .width }}" height="{{ .height }}" viewBox="0 0 16 16" aria-label="External Link"><path d="M7.68 0C4.06 0 2.249 0 1.125 1.125 0 2.25 0 4.06 0 7.68v.64c0 3.62 0 5.431 1.125 6.555C2.25 16 4.06 16 7.68 16h.64c3.62 0 5.431 0 6.555-1.125C16 13.75 16 11.94 16 8.32v-.64c0-3.62 0-5.431-1.125-6.555C13.75 0 11.94 0 8.32 0h-.64zM2.7 4.867h1.827C4.587 7.92 5.933 9.213 7 9.48V4.867h1.72V7.5c1.054-.113 2.16-1.313 2.534-2.633h1.719c-.286 1.626-1.486 2.827-2.34 3.32.854.4 2.22 1.446 2.74 3.34H11.48c-.407-1.267-1.42-2.248-2.76-2.38v2.38h-.206c-3.646 0-5.728-2.5-5.815-6.66z"/></svg>