<svg class="partials-img" xmlns="http://www.w3.org/2000/svg" width="{{ .width }}" height="{{ .height }}" viewBox="0 0 16 16" aria-label="External Link">
<path d="M15 7.153c0-3.732-2.83-6.33-6.897-6.33C3.89.823 1 3.739 1 7.996c0 4.395 2.812 7.181 7.25 7.181 1.084 0 2.124-.154 2.898-.421V13.67c-.541.25-1.704.413-2.881.413-3.681 0-6.055-2.365-6.055-6.036 0-3.578 2.416-6.14 5.78-6.14 3.44 0 5.796 2.123 5.796 5.228 0 2.116-.697 3.483-1.781 3.483-.619 0-.971-.352-.971-.956V4.617H9.737v1.05H9.6c-.335-.75-1.108-1.214-2.013-1.214-1.761 0-2.992 1.462-2.992 3.552 0 2.185 1.204 3.656 2.993 3.656 1.007 0 1.78-.49 2.15-1.368h.139c.102.843.884 1.445 1.89 1.445 1.978 0 3.234-1.78 3.234-4.583zm-9.03.886c0-1.506.68-2.4 1.832-2.4 1.17 0 1.918.93 1.918 2.4 0 1.47-.756 2.408-1.935 2.408-1.126 0-1.814-.912-1.814-2.408z"/></svg>