<svg class="partials-img" xmlns="http://www.w3.org/2000/svg" width="16" height="16" aria-label="External Link"><path class="prefix__cls-1" d="M15.734 6.395l-.022-.057L13.534.654a.567.567 0 00-.224-.27.583.583 0 00-.666.036.583.583 0 00-.194.293l-1.47 4.5H5.025l-1.47-4.5A.572.572 0 003.362.42a.583.583 0 00-.667-.036.572.572 0 00-.224.27L.289 6.334l-.022.058a4.044 4.044 0 001.342 4.674l.007.006.02.014 3.318 2.484 1.641 1.243 1 .754a.672.672 0 00.813 0l1-.754 1.64-1.243 3.338-2.499.008-.007a4.046 4.046 0 001.34-4.669z"/></svg>