<svg class="partials-img" xmlns="http://www.w3.org/2000/svg" class="prefix__me-1" width="{{ .width }}" height="{{ .height }}" viewBox="0 0 16 16" aria-label="External Link"><path d="M1 1.875C1 1.392 1.392 1 1.875 1H6.25c.483 0 .875.392.875.875v12.25A.875.875 0 016.25 15H1.875A.875.875 0 011 14.125zm7.875 7.088c0-.484.392-.875.875-.875h4.375c.483 0 .875.391.875.875v5.162a.875.875 0 01-.875.875H9.75a.875.875 0 01-.875-.875z"/><ellipse cx="11.927" cy="3.8" rx="2.641" ry="2.8" fill="#c06" fill-rule="evenodd"/></svg>