<svg class="partials-img" xmlns="http://www.w3.org/2000/svg" fill="{{ .fill }}" width="16" height="16" aria-label="External Link">
<path d="M9.127 3.044c-.382-.037-.766-.096-1.148-.103-.997-.026-1.972.165-2.954.315-.352.055-.52.21-.678.513-.542 1.041-1.132 2.056-1.704 3.08-.037.069-.085.157-.074.226.055.323.132.638.206.986.095-.073.168-.128.242-.18.41-.304.92-.241 1.176.147a.646.646 0 01-.062.84c-.473.513-.95 1.026-1.43 1.535-.23.246-.623.29-.923.114a.696.696 0 01-.312-.825 1.32 1.32 0 01.21-.403c.168-.223.362-.429.538-.649a.316.316 0 00.066-.216c-.044-.242-.106-.48-.169-.718a.196.196 0 00-.099-.118c-.165-.065-.348-.102-.502-.186-.33-.18-.645-.385-.967-.58A2.038 2.038 0 00.26 6.68c-.249-.103-.315-.213-.216-.462.114-.283.242-.561.378-.832.546-1.1 1.15-2.167 1.832-3.19.114-.168.246-.329.389-.48.227-.241.418-.267.681-.062.356.275.7.572 1.03.88.162.15.297.22.54.172.96-.194 1.93-.352 2.913-.355.825-.004 1.642.084 2.368.55.18.117.363.04.491-.125.4-.513.803-1.026 1.224-1.525.169-.201.315-.194.517-.022 1.158.997 2.313 1.994 3.467 2.991.162.14.169.29.015.458-.3.33-.605.66-.913.983-.146.153-.267.293-.304.527-.084.565-.245 1.11-.627 1.58.11.088.195.18.297.242.418.26.48.649.378 1.078-.143.6-.524.986-1.122 1.143-.11.03-.146.077-.165.198-.099.674-.37 1.243-1.03 1.55-.058.026-.099.132-.106.206-.03.363-.11.707-.352.997-.209.249-.48.403-.806.418-.158.007-.205.073-.242.208-.161.609-.832 1.13-1.459 1.1a1.226 1.226 0 01-.601-.213c-.663-.465-1.305-.956-1.957-1.44-.015-.011-.03-.018-.063-.037-.128.14-.252.286-.388.422a.743.743 0 01-1.22-.205c-.11-.228-.107-.448.076-.653.455-.517.913-1.03 1.342-1.565.275-.34.744-.3.978-.12.301.226.396.677.18.992-.125.184-.29.338-.436.506-.044.052-.092.103-.15.169.19.15.363.297.546.432.48.349.964.69 1.448 1.038.153.11.311.124.483.055.323-.125.594-.305.7-.664.03-.106.015-.183-.066-.25a364.84 364.84 0 00-1.85-1.487c-.132-.103-.268-.194-.253-.392.014-.169.124-.272.285-.224.143.04.29.106.407.198.524.418 1.038.847 1.554 1.272.052.04.096.084.147.124.396.316.931.136 1.063-.355.01-.044.022-.092.03-.136.062-.282.021-.505-.243-.7-.582-.429-1.14-.887-1.7-1.341-.081-.066-.173-.147-.198-.238-.026-.092-.011-.239.051-.301.059-.059.198-.059.3-.055.063.004.122.066.177.11.586.47 1.172.942 1.759 1.411.3.242.425.231.67-.07.206-.249.356-.527.36-.857a.377.377 0 00-.114-.257c-.513-.44-1.033-.868-1.547-1.308a1.374 1.374 0 01-.267-.297c-.073-.106-.055-.246.051-.315.08-.052.216-.081.304-.048.129.048.239.147.345.238.47.4.938.803 1.396 1.213.169.15.338.195.525.077.157-.099.326-.198.44-.337.274-.33.23-.638-.089-.916-1.29-1.133-2.576-2.265-3.87-3.387a.44.44 0 00-.315-.091c-.565.073-1.13.153-1.686.252-.18.033-.352.125-.528.195-.524.212-1.004.117-1.444-.206-.297-.216-.33-.505-.066-.766.245-.242.546-.428.795-.667.334-.319.733-.436 1.18-.469.385-.03.766-.099 1.151-.15-.003-.011-.003-.03-.003-.051zM3.05 2.12C2.075 3.42 1.36 4.818.66 6.229l1.264.736c.653-1.187 1.294-2.353 1.932-3.518.066-.121.202-.26.18-.367-.022-.117-.187-.209-.294-.308-.212-.209-.436-.414-.692-.652zm12.242 2.35c-.125-.103-.235-.191-.338-.283-.454-.407-.901-.82-1.367-1.22-.421-.363-.861-.711-1.294-1.06-.04-.033-.146-.047-.168-.025-.293.34-.58.689-.876 1.044l3.1 2.566c.32-.34.627-.674.943-1.023z"/><path d="M6.03 9.956c.384 0 .7.279.707.653a.602.602 0 01-.121.366c-.543.649-1.096 1.287-1.646 1.928-.315.367-.704.429-1.033.172-.349-.275-.407-.74-.107-1.107.385-.465.796-.909 1.195-1.363.11-.125.216-.25.33-.367.209-.212.381-.282.674-.282zM3.288 12.082c-.598-.04-.95-.645-.649-1.176.172-.308.414-.583.649-.85.3-.345.62-.675.934-1.009.21-.22.613-.282.88-.139.275.147.44.506.356.81a.562.562 0 01-.121.213c-.583.667-1.166 1.334-1.756 1.993-.073.077-.194.107-.293.158z"/></svg>