<svg class="partials-img" xmlns="http://www.w3.org/2000/svg" width="{{ .width }}" height="{{ .height }}" viewBox="0 0 16 16" aria-label="External Link">
<path d="M0 7.68c0-3.62 0-5.43 1.125-6.555C2.249 0 4.06 0 7.68 0h.64c3.62 0 5.43 0 6.555 1.125C16 2.249 16 4.06 16 7.68v.64c0 3.62 0 5.43-1.125 6.555C13.751 16 11.94 16 8.32 16h-.64c-3.62 0-5.43 0-6.555-1.125C0 13.751 0 11.94 0 8.32z"/><path d="M8.513 11.527c-3.646 0-5.726-2.5-5.813-6.66h1.827C4.587 7.92 5.933 9.213 7 9.48V4.867h1.72V7.5c1.053-.113 2.16-1.313 2.533-2.633h1.72c-.286 1.626-1.486 2.826-2.34 3.32.854.4 2.22 1.446 2.74 3.34H11.48c-.407-1.267-1.42-2.247-2.76-2.38v2.38z" fill="#fff"/>
</svg>