<svg viewBox="0 0 640 320" xmlns:xlink="http://www.w3.org/1999/xlink" xmlns="http://www.w3.org/2000/svg">
  <defs>
    <linearGradient x1="0" y1="0" x2="1" y2="0" gradientUnits="userSpaceOnUse"
      gradientTransform="matrix(450 284 -425 293 113 26)" spreadMethod="pad" id="a">
      <stop style="stop-opacity:1;stop-color:#00e7ff" offset="0" />
      <stop style="stop-opacity:1;stop-color:#0092e6" offset="1" />
    </linearGradient>
  </defs>
  <path d="M0 320h640V0H0z" style="fill:url(#a)" />
  <symbol id="hugo-logo-rfi" viewBox="0 0 1493 391">
    <path fill="#ebb951" stroke="#fcd804"
      d="M1345.211 24.704l112.262 64.305a43 43 0 0 1 21.627 37.312v142.237a40 40 0 0 1-20.702 35.037l-120.886 66.584a42 42 0 0 1-41.216-.389l-106.242-61.155a57 57 0 0 1-28.564-49.4V138.71a64 64 0 0 1 31.172-54.939l98.01-58.564a54 54 0 0 1 54.54-.503z" />
    <path fill="#33ba91" stroke="#00a88a"
      d="M958.07 22.82l117.31 66.78a41 41 0 0 1 20.72 35.64v139.5a45 45 0 0 1-23.1 39.32L955.68 369.4a44 44 0 0 1-43.54-.41l-105.82-61.6a56 56 0 0 1-27.83-48.4V140.07a68 68 0 0 1 33.23-58.44l98.06-58.35a48 48 0 0 1 48.3-.46z" />
    <path fill="#0594cb" stroke="#0083c0"
      d="M575.26 20.97l117.23 68.9a40 40 0 0 1 19.73 34.27l.73 138.67a48 48 0 0 1-24.64 42.2l-115.13 64.11a45 45 0 0 1-44.53-.42l-105.83-61.6a55 55 0 0 1-27.33-47.53V136.52a63 63 0 0 1 29.87-53.59l99.3-61.4a49 49 0 0 1 50.6-.56z" />
    <path fill="#ff4088" stroke="#c9177e"
      d="M195.81 24.13l114.41 66.54a44 44 0 0 1 21.88 38.04v136.43a48 48 0 0 1-24.45 41.82L194.1 370.9a49 49 0 0 1-48.48-.23L41.05 310.48a53 53 0 0 1-26.56-45.93V135.08a55 55 0 0 1 26.1-46.8l102.8-63.46a51 51 0 0 1 52.42-.69z" />
    <path fill="#fff"
      d="M1320.72 89.15c58.79 0 106.52 47.73 106.52 106.51 0 58.8-47.73 106.52-106.52 106.52-58.78 0-106.52-47.73-106.52-106.52 0-58.78 47.74-106.51 106.52-106.51zm0 39.57c36.95 0 66.94 30 66.94 66.94a66.97 66.97 0 0 1-66.94 66.94c-36.95 0-66.94-29.99-66.94-66.94a66.97 66.97 0 0 1 66.93-66.94h.01zm-283.8 65.31c0 47.18-8.94 60.93-26.81 80.58-17.87 19.65-41.57 27.57-71.1 27.57-27 0-48.75-9.58-67.61-26.23-20.88-18.45-36.08-47.04-36.08-78.95 0-31.37 11.72-58.48 32.49-78.67 18.22-17.67 45.34-29.18 73.3-29.18 33.77 0 68.83 15.98 90.44 47.53l-31.73 26.82c-13.45-25.03-32.94-33.46-60.82-34.26-30.83-.88-64.77 28.53-62.25 67.75 1.4 21.94 11.65 59.65 60.96 66.57 25.9 3.63 55.36-24.02 55.36-39.04H944.4v-37.5h92.5V194l.02.03zm-562.6-94.65h42.29v112.17c0 17.8.49 29.33 1.47 34.61 1.69 8.48 4.81 14.37 11.17 19.5 6.37 5.13 13.8 6.59 24.84 6.59 11.2 0 14.96-1.74 20.66-6.6 5.69-4.85 9.12-9.46 10.28-16.53 1.15-7.07 3.07-18.8 3.07-35.18V99.38h42.28v108.78c0 24.86-1.07 42.43-3.21 52.69-2.14 10.27-6.08 18.93-11.82 26-5.74 7.06-13.42 12.69-23.03 16.88-9.62 4.19-22.16 6.28-37.65 6.28-18.7 0-32.87-2.28-42.52-6.85-9.66-4.57-17.3-10.5-22.9-17.8-5.61-7.3-9.3-14.95-11.08-22.96-2.58-11.86-3.88-29.38-3.88-52.55V99.38h.03zM93.91 299.92V92.7h43.35v75.48h71.92V92.7h43.48v207.22h-43.48v-90.61h-71.92v90.61z" />
  </symbol>
  <symbol id="rgi-refresing" viewBox="0 0 512 512">
    <defs>
      <linearGradient gradientUnits="userSpaceOnUse"
        gradientTransform="matrix(-100.24543 -112.04855 -110.91696 95.46276 374.665 301.885)" x2=".69" x1=".31" id="l">
        <stop offset="0" stop-color="#00a664" />
        <stop offset="1" stop-color="#9c3" />
      </linearGradient>
      <linearGradient gradientUnits="userSpaceOnUse"
        gradientTransform="matrix(136.35443 89.7085 109.07416 -159.4891 92.085 371.153)" x2=".71" x1=".29" id="m">
        <stop offset="0" stop-color="#00a664" />
        <stop offset="1" stop-color="#9c3" />
      </linearGradient>
      <linearGradient gradientUnits="userSpaceOnUse"
        gradientTransform="matrix(-103.38156 156.87323 138.78693 87.9898 94.136 272.03)" x2=".63" x1=".37" id="b">
        <stop offset="0" stop-color="#00a664" />
        <stop offset="1" stop-color="#9c3" />
      </linearGradient>
      <linearGradient y2=".05" gradientUnits="userSpaceOnUse"
        gradientTransform="matrix(-126.0414 101.98929 107.18444 127.42828 310.582 177.878)" y1=".005" x2=".635"
        x1=".395" id="c">
        <stop offset="0" stop-color="#00a664" />
        <stop offset="1" stop-color="#9c3" />
      </linearGradient>
      <linearGradient gradientUnits="userSpaceOnUse"
        gradientTransform="matrix(-71.47416 141.8517 153.89796 74.59825 252.533 81.14)" x2=".62" x1=".38" id="d">
        <stop offset="0" stop-color="#00a664" />
        <stop offset="1" stop-color="#9c3" />
      </linearGradient>
      <linearGradient gradientUnits="userSpaceOnUse"
        gradientTransform="matrix(-140.6867 -82.50173 -87.4798 143.5047 504.385 270.758)" x2=".63" x1=".37" id="e">
        <stop offset="0" stop-color="#00a664" />
        <stop offset="1" stop-color="#9c3" />
      </linearGradient>
      <linearGradient gradientUnits="userSpaceOnUse"
        gradientTransform="matrix(3.4783 -13.725 18.601 4.7141 318.42 609.29)" x2=".88" x1=".12" id="h">
        <stop offset="0" stop-color="#bdbcbc" />
        <stop offset="1" stop-color="#231f20" />
      </linearGradient>
      <linearGradient gradientUnits="userSpaceOnUse"
        gradientTransform="matrix(8.486 -10.555 10.67 8.5787 320.03 602.19)" x2=".69" x1=".31" id="j">
        <stop offset="0" stop-color="#fff" />
        <stop offset="1" stop-color="#231f20" />
      </linearGradient>
      <linearGradient gradientUnits="userSpaceOnUse"
        gradientTransform="matrix(52.06437 57.17447 58.05852 -50.85826 147.537 240.4)" x2=".88" x1=".12" id="k">
        <stop offset="0" stop-color="#bdbcbc" />
        <stop offset="1" stop-color="#231f20" />
      </linearGradient>
      <linearGradient gradientUnits="userSpaceOnUse"
        gradientTransform="matrix(-116.33482 111.28942 112.40462 113.03443 176.81 98.883)" x2=".63" x1=".37" id="a">
        <stop offset="0" stop-color="#00a664" />
        <stop offset="1" stop-color="#9c3" />
      </linearGradient>
      <linearGradient gradientUnits="userSpaceOnUse"
        gradientTransform="matrix(-193.55855 156.7352 155.27839 184.47129 81.487 184.411)" x2=".6" x1=".4" id="n">
        <stop offset="0" stop-color="#00a664" />
        <stop offset="1" stop-color="#9c3" />
      </linearGradient>
      <linearGradient gradientUnits="userSpaceOnUse"
        gradientTransform="matrix(-235.0921 -104.33568 -76.20516 165.1842 270.71 250.876)" x2=".56" x1=".44" id="o">
        <stop offset="0" stop-color="#00a664" />
        <stop offset="1" stop-color="#9c3" />
      </linearGradient>
      <linearGradient gradientUnits="userSpaceOnUse"
        gradientTransform="matrix(-1.0517 -10.836 8.9796 -.87152 315.39 589.38)" x2=".9" x1=".1" id="q">
        <stop offset="0" stop-color="#bdbcbc" />
        <stop offset="1" stop-color="#231f20" />
      </linearGradient>
      <linearGradient gradientUnits="userSpaceOnUse"
        gradientTransform="matrix(1.7791 -9.7175 10.594 1.9396 314.42 586.13)" x2=".86" x1=".14" id="s">
        <stop offset="0" stop-color="#fff" />
        <stop offset=".33" stop-color="#918f90" />
        <stop offset="1" stop-color="#231f20" />
      </linearGradient>
      <linearGradient gradientUnits="userSpaceOnUse"
        gradientTransform="matrix(-8.4908 15.023 -16.222 -9.1687 338.49 569.45)" x2=".71" x1=".29" id="t">
        <stop offset="0" stop-color="#bdbcbc" />
        <stop offset="1" stop-color="#231f20" />
      </linearGradient>
      <linearGradient gradientUnits="userSpaceOnUse"
        gradientTransform="matrix(-161.94936 -99.69876 -95.49434 149.22608 326.624 266.075)" x2=".65" x1=".35" id="u">
        <stop offset="0" stop-color="#4dbe4b" />
        <stop offset="1" stop-color="#9c3" />
      </linearGradient>
      <linearGradient gradientUnits="userSpaceOnUse"
        gradientTransform="matrix(2.846 -12.453 12.81 2.9277 363.49 608.38)" x2=".93" x1=".07" id="v">
        <stop offset="0" stop-color="#fff" />
        <stop offset="1" stop-color="#231f20" />
      </linearGradient>
      <linearGradient gradientUnits="userSpaceOnUse"
        gradientTransform="matrix(5.8529 -8.5707 9.0197 6.1595 367.31 604.53)" x2=".75" x1=".25" id="x">
        <stop offset="0" stop-color="#fff" />
        <stop offset="1" stop-color="#231f20" />
      </linearGradient>
      <linearGradient gradientUnits="userSpaceOnUse"
        gradientTransform="matrix(-7.6839 12.876 -14.227 -8.4901 389.94 591.48)" x2=".75" x1=".25" id="y">
        <stop offset="0" stop-color="#bdbcbc" />
        <stop offset=".33" stop-color="#706d6e" />
        <stop offset="1" stop-color="#231f20" />
      </linearGradient>
      <radialGradient gradientUnits="userSpaceOnUse" gradientTransform="matrix(4.1882 0 0 -4.10783 -1220.953 2707.061)"
        r="13.155" cy="599.69" cx="335.92" id="g">
        <stop offset="0" stop-color="#231f20" />
        <stop offset=".49" stop-color="#444141" />
        <stop offset="1" stop-color="#fff" />
      </radialGradient>
      <radialGradient gradientUnits="userSpaceOnUse" gradientTransform="matrix(4.1882 0 0 -4.10783 -1220.953 2707.061)"
        r="11.504" cy="578.43" cx="322.57" id="p">
        <stop offset="0" stop-color="#231f20" />
        <stop offset=".49" stop-color="#444141" />
        <stop offset="1" stop-color="#fff" />
      </radialGradient>
      <radialGradient gradientUnits="userSpaceOnUse" gradientTransform="matrix(4.1882 0 0 -4.10783 -1220.953 2707.061)"
        r="11.504" cy="598.66" cx="376.02" id="f">
        <stop offset="0" stop-color="#231f20" />
        <stop offset=".49" stop-color="#444141" />
        <stop offset="1" stop-color="#bdbcbc" />
      </radialGradient>
      <filter id="w">
        <feGaussianBlur stdDeviation=".309" />
      </filter>
      <filter height="1.208" width="1.122" y="-.104" x="-.061" id="i">
        <feGaussianBlur stdDeviation=".386" />
      </filter>
      <filter id="r">
        <feGaussianBlur stdDeviation=".149" />
      </filter>
    </defs>
    <path
      d="M253.582 230.294c-37.251-15.731-66.267-31.995-91.859-40.713-25.591-8.719-39.922-15.2-62.384-13.113 12.916 18.035 45.025 41.467 73.24 48.079 28.215 6.611 58.125 8.425 81 5.744"
      fill="url(#a)" />
    <path
      d="M154.824 310.604c-14.873 11.81-40.662 30.766-52.064 51.874C91.358 383.585 79.648 415.055 88.185 434c23.296-9.392 43.574-33.628 55.177-55.11 11.603-21.483 11.975-48.716 11.462-68.286"
      fill="url(#b)" />
    <path
      d="M326.49 311.219c9.523-29.883 13.513-64.674 24.268-83.416-21.158 9.711-45.443 45.163-56.648 73.98-6.825 17.562-9.348 44.178-4.844 56.183 17.024-11.37 33.247-34.27 37.224-46.747z"
      fill="url(#c)" />
    <path
      d="M361.584 228.612c-9.294-17.907-26.57-41.18-48.194-57.365-21.622-16.185-56.253-32.45-78.2-37.247 5.57 20.9 29.442 50.94 51.449 67.414 22.006 16.475 51.247 23.74 74.948 27.2"
      fill="url(#d)" />
    <path
      d="M436 232.085c-87.363-14.269-163.661-11.541-199.921 2.58 60.648-10.772 127.097-9.25 199.485 3.51.118-2.16.319-3.93.436-6.09"
      fill="#761519" />
    <path
      d="M428.06 236.827c-18.948 9.826-43.16 27.296-59.235 48.128-16.076 20.831-31.194 53.418-34.722 73.638 22.536-6.697 53.669-30.667 70.023-51.864 16.354-21.196 22.017-48.202 23.93-69.895"
      fill="url(#e)" />
    <path
      d="M370.296 210.044c-19.719-5.85-43.17 6.724-52.202 27.993-9.033 21.268-.319 43.385 19.4 49.241 19.718 5.853 43.168-6.724 52.201-27.992 9.033-21.27.319-43.389-19.4-49.242"
      fill="url(#f)" />
    <path
      d="M134.007 244.96c.999-18.797 25.15-34.406 53.763-34.748 28.614-.342 51.137 14.712 50.141 33.51-.995 18.797-25.149 34.407-53.763 34.749-28.613.342-51.136-14.71-50.14-33.507"
      fill="url(#g)" />
    <path transform="matrix(4.1882 0 0 -4.10783 -1220.953 2707.061)"
      d="M338.03 605.28c.278-1.323-2.021-3.106-5.12-3.969s-5.852-.487-6.13.836c-.278 1.323 2.022 3.107 5.12 3.97 3.098.863 5.852.486 6.13-.837"
      fill="url(#h)" filter="url(#i)" />
    <path transform="matrix(4.1882 0 0 -4.10783 -1220.953 2707.061)"
      d="M326.2 599.87c-.885.868.231 2.816 2.486 4.337 2.255 1.521 4.816 2.053 5.701 1.186.885-.867-.231-2.816-2.486-4.337-2.255-1.521-4.816-2.053-5.701-1.186"
      fill="url(#j)" filter="url(#i)" />
    <path
      d="M175.933 267.8c24.368 2.564 38.313-10.792 40.575-30.437 4.768 4.578 6.829 20.454-5.307 28.485-12.136 8.032-26.56 6.717-35.265 1.952"
      fill="url(#k)" />
    <path
      d="M269.383 229.795c-12.31 12.422-28.067 32.166-34.859 52.711-6.792 20.546-7.924 50.353-4.845 67.395 16.1-10.779 35.429-36.06 42.345-56.97 6.915-20.911 2.167-45.292-2.637-63.133"
      fill="url(#l)" />
    <path
      d="M212.035 244.304c-13.225 26.835-26.835 60.598-30.825 86.07-3.994 25.472-4.557 56.912 10.903 78.447 16.082-18.82 26.134-54.237 29.106-79.722 2.972-25.485-1.384-48.045-9.184-84.799"
      fill="url(#m)" />
    <path
      d="M163.452 281.767c-34.266 20.565-62.686 33.503-82.786 49.718C60.566 347.699 52.21 356.484 36 376.03c33.455 2.508 71.83-11.65 84.069-31.384 12.24-19.734 33.944-43.799 43.386-62.879"
      fill="url(#n)" />
    <path
      d="M235.405 235.184c-22.834 2.156-96.633 29.231-123.555 43.908-26.922 14.68-37.238 24.604-53.448 44.154 31.984-4.206 68.673-18.883 85.412-29.103 16.74-10.22 76.058-35.715 91.598-58.959"
      fill="url(#o)" />
    <path
      d="M146.404 293.187c-19.718-5.85-43.168 6.723-52.201 27.992-9.034 21.269-.319 43.389 19.4 49.242 19.717 5.85 43.168-6.724 52.201-27.993 9.033-21.269.318-43.392-19.4-49.241"
      fill="url(#p)" />
    <path transform="matrix(4.1882 0 0 -4.10783 -1220.953 2707.061)"
      d="M316.1 578.64c1.256-.676 3.76.45 5.574 2.509 1.814 2.059 2.268 4.289 1.012 4.965-1.256.676-3.76-.45-5.573-2.509-1.813-2.059-2.27-4.288-1.013-4.965"
      fill="url(#q)" filter="url(#r)" />
    <path transform="matrix(4.1882 0 0 -4.10783 -1220.953 2707.061)"
      d="M325.17 585.76c-.61.979-2.922.812-5.147-.373s-3.542-2.95-2.932-3.928c.61-.978 2.923-.812 5.148.372 2.225 1.184 3.541 2.95 2.931 3.929"
      fill="url(#s)" filter="url(#r)" />
    <path transform="matrix(4.1882 0 0 -4.10783 -1220.953 2707.061)"
      d="M329.08 578.05c-1.133-4.653-5.437-6.05-10.446-4.782.784-1.26 4.55-2.99 7.41-1.468 2.86 1.522 3.58 4.258 3.036 6.25"
      fill="url(#t)" filter="url(#r)" />
    <path
      d="M242.9 233.87c-21.085 5.98-50.037 17.43-70.924 34.854-20.888 17.424-42.184 47.532-50.52 66.823 23.883-2.18 60.896-17.526 82.152-35.255 21.256-17.73 32.193-45.35 39.29-66.42"
      fill="url(#u)" />
    <path transform="matrix(4.1882 0 0 -4.10783 -1220.953 2707.061)"
      d="M369.55 598.88c1.256-.676 3.76.45 5.574 2.509 1.814 2.059 2.268 4.289 1.012 4.965-1.256.676-3.76-.45-5.573-2.509-1.813-2.059-2.269-4.288-1.013-4.965"
      fill="url(#v)" filter="url(#w)" />
    <path transform="matrix(4.1882 0 0 -4.10783 -1220.953 2707.061)"
      d="M378.62 606c-.61.98-2.923.811-5.147-.373-2.224-1.184-3.542-2.95-2.932-3.928.61-.978 2.923-.812 5.147.373s3.542 2.949 2.932 3.928"
      fill="url(#x)" filter="url(#w)" />
    <path transform="matrix(4.1882 0 0 -4.10783 -1220.953 2707.061)"
      d="M382.54 598.29c-1.133-4.653-5.437-6.05-10.446-4.782.784-1.26 4.55-2.991 7.41-1.468 2.86 1.523 3.58 4.258 3.036 6.25"
      fill="url(#y)" filter="url(#w)" />
    <path transform="matrix(3.35056 0 0 3.28627 21.57 126.258)"
      d="M107.23 33.843c-.403-1.294-2.125-3.138-3.977-2.545-1.853.593 1.014 1.152 1.717 3.068.703 1.916-.786 3.818.795 3.261 1.581-.557 1.868-2.49 1.465-3.784"
      fill="#656263" filter="url(#w)" />
    <path transform="matrix(3.35056 0 0 3.28627 21.57 126.258)"
      d="M106.59 33.233c-.756-1.043-2.935-2.236-4.546-1.235-1.61 1 1.303.76 2.524 2.278 1.22 1.517.335 3.585 1.695 2.686s1.083-2.686.327-3.729"
      fill="#393536" filter="url(#w)" />
  </symbol>
  <symbol id="sun-rfi" fill="#feeb15">
    <path
      d="m218.906 217.619-88.953-112.082 69.432 110.447-72.07-109.607 50.793 105.528-52.55-104.057 34.768 100.726L122.92 108.27l18.583 93.886-21-93.466 4.089 84.542-6.397-84.542-6.21 74.76 4.122-74.76-15.783 68.027 14.025-68.447-23.291 62.245 21.093-62.456-28.609 56.475 26.411-57.525-32.475 51.077 30.717-51.918-35.543 44.8 33.565-45.85-37.911 41.048 36.153-42.31-39.949 38.023 38.41-39.494L59.606 137.9l41.996-36.987-44.463 30.6 43.144-31.86-47.573 25.475 46.474-27.367-50.612 20.418 49.733-22.73-53.369 15.574 52.71-17.675-61.716 9.783 61.056-12.515-66.876 3.13 66.876-5.337-70.025-6.2 69.805 4.203L24.68 70.651l72.306 14.08-72.306-26.06L98.085 82.84 24.68 46.483l74.284 34.886L24.68 34.714l74.724 44.973L24.68 22.945l75.603 55.061-75.603-67.04 76.482 65.149L24.68-1.013l78.68 75.657L37.207-1.013l67.691 73.345L49.514-1.013l57.362 72.294L62.261-1.013l47.033 71.243L74.569-.098l36.703 69.488L87.594 2.305 113.69 68.97 100.165 5.224l15.943 63.326-3.833-59.512 5.92 59.092 4.647-55.303-2.119 55.513 11.46-49.875-8.823 50.085 16.191-46.96-13.773 48.01 20.726-43.84-18.089 44.892L154.6 28.969l-24.207 42.943 30.793-37.648-29.254 38.909 32.45-35.85-30.912 37.32 36.261-34.095-34.283 35.357 38.618-32.622-37.3 34.723 42.143-30.85-41.043 32.531 46.355-28.286-45.256 29.968 52.211-24.378-51.992 26.69 58.85-19.86-58.63 21.54 65.99-14.311-65.55 15.573 75.067-4.036-75.507 5.822 87.132 7.181-87.132-5.395 96.73 21.654L138 92l106.834 35.564-106.31-32.745 116.012 58.258L137.645 96.92l121.018 72.592-121.897-71.12 123.422 84.972-124.301-83.712 121.412 98.08-122.73-96.188 125.297 122.61-126.617-121.56 107.2 119.859L131.49 104.276z" />
  </symbol>
  <symbol id="cloud-rfi" fill="#fff">
    <path
      d="M16.899 60.316a21.466 21.406 0 0 0-.697 5.414c0 11.806 9.597 21.375 21.436 21.375a21.45 21.39 0 0 0 5.539-.725c3.874 5.537 10.304 9.163 17.587 9.163a21.367 21.307 0 0 0 8.16-1.608c3.755 6.188 10.569 10.327 18.352 10.327 11.838 0 21.434-9.57 21.434-21.376 0-1.14-.091-2.26-.264-3.352a21.462 21.402 0 0 0 4.777.54c11.839 0 21.434-9.57 21.434-21.375 0-11.806-9.596-21.375-21.434-21.375a21.53 21.53 0 0 0-3.392.269c.001-.09.006-.18.006-.27 0-11.805-9.596-21.374-21.434-21.374a21.33 21.272 0 0 0-9.92 2.429 21.333 21.273 0 0 0-12.642-4.116c-8.897 0-16.526 5.404-19.77 13.102a20.836 20.778 0 0 0-1.32.47 21.345 21.285 0 0 0-13.6-4.854c-11.838 0-21.435 9.57-21.435 21.375 0 6.347 2.777 12.045 7.182 15.96z" />
  </symbol>
  <use xlink:href="#sun-rfi" x="0" y="0" transform="scale(.8)" />
  <use xlink:href="#cloud-rfi" x="12" y="10" transform="scale(.7)" />
  <text style="text-anchor:end;fill:#33ccff;font-family:'Golos Text VF';font-weight:900;">
    <!-- <tspan x="608" y="125" style="font-weight:700;font-size:50px;letter-spacing:.2rem;">
      theme
    </tspan> -->
    <tspan x="610" y="120" style="font-weight:700;font-size:50px;letter-spacing:.2rem;">
      тема для
    </tspan>
    <tspan x="615" y="250" style="font-size:64px;">
      ReFreshing
    </tspan>
    <tspan x="565" y="280" style="font-weight:700;font-size:30px;letter-spacing:12px;">
      освежающая
    </tspan>
  </text>
  <use xlink:href="#rgi-refresing" x="0" y="00" transform="scale(.8)" />
  <use xlink:href="#hugo-logo-rfi" transform="translate(390,120) scale(.25)" fill-rule="evenodd" stroke-width="27"
    fill="#e0f2f1" />

</svg>