<svg class="partials-img" xmlns="http://www.w3.org/2000/svg" width="{{ .width }}" height="{{ .height }}" viewBox="0 0 16 16" aria-label="External Link">
<path d="M16 8a8 8 0 01-8 8 8 8 0 01-8-8 8 8 0 018-8 8 8 0 018 8z"/><path d="M6.969 7.158a.39.392 0 00-.39.392v3.139a.39.392 0 00.39.392h3.744a.781.785 0 01.553.23l.78.785V7.55a.39.392 0 00-.39-.392zm4.687-.392a.781.785 0 01.781.784v5.02a.195.196 0 01-.333.138l-1.115-1.12a.39.392 0 00-.276-.114H6.97a.781.785 0 01-.782-.785V7.55a.781.785 0 01.782-.784z" fill="#fff"/><path d="M7.36 8.139a.195.196 0 01.195-.196h3.515a.195.196 0 010 .392H7.555a.195.196 0 01-.196-.196zm0 .98a.195.196 0 01.195-.195h3.515a.195.196 0 010 .392H7.555a.195.196 0 01-.196-.196zm0 .982a.195.196 0 01.195-.197h1.953a.195.196 0 010 .393H7.555a.195.196 0 01-.196-.197zM5.39 5.724a.39.391 0 11-.78 0 .39.391 0 01.78 0zm1.563 0a.39.391 0 11-.781 0 .39.391 0 01.781 0zm1.172.391a.39.391 0 100-.782.39.391 0 000 .782z" fill="#fff"/><path d="M4.283 8.778l.008-.002c.715-.142 1.152-.33 1.355-.432a3.533 3.533 0 00.917.12c0-.392-.665-.932-.081-1.343.05-.036 2.939-.286 2.966-.343.154-.324.24-.68.24-1.054 0-1.513-1.4-2.74-3.126-2.74-1.725 0-3.125 1.227-3.125 2.74 0 .689.29 1.319.77 1.8a4.091 4.091 0 01-.205.908v.004a4.201 4.201 0 01-.096.25c-.031.072.029.153.107.14.09-.014.18-.03.27-.048zm.313-1.216a.392.392 0 00-.112-.314c-.414-.416-.656-.95-.656-1.524 0-1.25 1.174-2.348 2.735-2.348 1.56 0 2.734 1.099 2.734 2.348 0 .371-.104.73-.29 1.049-.026.044-2.105.014-2.134.057-.465.688-.31 1.242-.31 1.242a3.143 3.143 0 01-.816-.106.39.39 0 00-.278.029 4.618 4.618 0 01-1.029.35 4.3 4.3 0 00.156-.783z" fill="#fff"/>
</svg>